<svg height="512" viewBox="0 0 64 64" width="512" xmlns="http://www.w3.org/2000/svg" xmlns:xlink="http://www.w3.org/1999/xlink"><linearGradient id="linear-gradient" gradientUnits="userSpaceOnUse" x2="63.789" y1="32" y2="32"><stop offset="0" stop-color="#84aa50"/><stop offset="1" stop-color="#00acc9"/></linearGradient><linearGradient id="linear-gradient-2" x2="63.789" xlink:href="#linear-gradient" y1="17" y2="17"/><linearGradient id="linear-gradient-4" x2="63.789" xlink:href="#linear-gradient" y1="39" y2="39"/><linearGradient id="linear-gradient-5" x2="63.789" xlink:href="#linear-gradient" y1="9.5" y2="9.5"/><linearGradient id="linear-gradient-6" x2="63.789" xlink:href="#linear-gradient" y1="16" y2="16"/><linearGradient id="linear-gradient-7" x2="63.789" xlink:href="#linear-gradient" y1="52" y2="52"/><linearGradient id="linear-gradient-9" x2="63.789" xlink:href="#linear-gradient" y1="56" y2="56"/><linearGradient id="linear-gradient-12" x2="63.789" xlink:href="#linear-gradient" y1="27" y2="27"/><g id="Gradient_outline" data-name="Gradient outline"><path d="m46 62a1 1 0 0 0 1-1v-28h7a1 1 0 0 0 1-1v-25a5.006 5.006 0 0 0 -5-5h-36a5.006 5.006 0 0 0 -5 5v54a1 1 0 0 0 1 1zm4-58a3 3 0 0 1 3 3v24h-6v-24a3 3 0 0 1 3-3zm-39 3a3 3 0 0 1 3-3h32a4.98 4.98 0 0 0 -1 3v53h-34z" fill="url(#linear-gradient)"/><path d="m29 28a11 11 0 1 0 -11-11 11.013 11.013 0 0 0 11 11zm0-20a9 9 0 1 1 -9 9 9.011 9.011 0 0 1 9-9z" fill="url(#linear-gradient-2)"/><path d="m28 24h2v-2h2a1 1 0 0 0 1-1v-4a1 1 0 0 0 -1-1h-5v-2h6v-2h-3v-2h-2v2h-2a1 1 0 0 0 -1 1v4a1 1 0 0 0 1 1h5v2h-6v2h3z" fill="url(#linear-gradient-2)"/><path d="m13 30v18h30v-18zm2 2h4v2h-4zm0 4h4v2h-4zm0 4h4v2h-4zm0 6v-2h4v2zm26 0h-20v-2h20zm0-4h-20v-2h20zm0-4h-20v-2h20zm0-6v2h-20v-2z" fill="url(#linear-gradient-4)"/><path d="m15 8h4v-2h-6v7h2z" fill="url(#linear-gradient-5)"/><path d="m13 15h2v2h-2z" fill="url(#linear-gradient-6)"/><path d="m13 51h4v2h-4z" fill="url(#linear-gradient-7)"/><path d="m19 51h14v2h-14z" fill="url(#linear-gradient-7)"/><path d="m13 55h16v2h-16z" fill="url(#linear-gradient-9)"/><path d="m35 51h8v2h-8z" fill="url(#linear-gradient-7)"/><path d="m31 55h12v2h-12z" fill="url(#linear-gradient-9)"/><path d="m41 26h2v2h-2z" fill="url(#linear-gradient-12)"/></g></svg>